<svg xmlns="http://www.w3.org/2000/svg" version="1.1" xmlns:xlink="http://www.w3.org/1999/xlink" xmlns:svgjs="http://svgjs.dev/svgjs" width="1440" height="560" preserveAspectRatio="none" viewBox="0 0 1440 560"><g mask="url(&quot;#SvgjsMask1138&quot;)" fill="none"><path d="M 0,79 C 36,82.4 108,94.6 180,96 C 252,97.4 288,76.6 360,86 C 432,95.4 468,146.6 540,143 C 612,139.4 648,65.2 720,68 C 792,70.8 828,170.4 900,157 C 972,143.6 1008,9 1080,1 C 1152,-7 1188,113 1260,117 C 1332,121 1404,40.2 1440,21L1440 560L0 560z" fill="rgba(173, 209, 246, 1)"></path><path d="M 0,332 C 41.2,315 123.6,253.4 206,247 C 288.4,240.6 329.6,305.8 412,300 C 494.4,294.2 535.6,208.2 618,218 C 700.4,227.8 741.6,352 824,349 C 906.4,346 947.6,211.4 1030,203 C 1112.4,194.6 1154,293.4 1236,307 C 1318,320.6 1399.2,278.2 1440,271L1440 560L0 560z" fill="rgba(145, 200, 228, 1)"></path><path d="M 0,556 C 36,530 108,440.8 180,426 C 252,411.2 288,477.6 360,482 C 432,486.4 468,439.4 540,448 C 612,456.6 648,536 720,525 C 792,514 828,394 900,393 C 972,392 1008,519 1080,520 C 1152,521 1188,392.6 1260,398 C 1332,403.4 1404,517.2 1440,547L1440 560L0 560z" fill="rgba(116, 155, 194, 1)"></path></g><defs><mask id="SvgjsMask1138"><rect width="1440" height="560" fill="#ffffff"></rect></mask></defs></svg>